<svg width="257" height="106" viewBox="0 0 257 106" fill="none" xmlns="http://www.w3.org/2000/svg">
<path d="M49.5306 61.6048L52.0741 70.6955L56.3133 55.8113H59.7203L63.9909 70.6955L66.4873 61.6048L68.2929 55.8113H72.3279L65.4039 77.1641H62.4522L59.8773 68.8585L58.0403 62.4683L56.1877 68.8585L53.5657 77.1641H50.661L43.7371 55.8113H47.7721L49.5306 61.6048Z" fill="#085946"/>
<path d="M78.2069 58.4333C79.0116 57.295 79.9654 56.5179 81.0644 56.1096C82.1635 55.7014 83.3763 55.4973 84.707 55.4973C86.8737 55.4973 88.6321 55.9173 89.9824 56.7534C91.3405 57.5933 92.3414 58.7709 92.9812 60.286C93.6289 61.7933 93.9546 63.5674 93.9546 65.6085V77.0072H90.108V65.6399C90.108 64.3132 89.9549 63.1396 89.6527 62.123C89.3583 61.1103 88.797 60.3174 87.9727 59.7522C87.1563 59.187 85.9709 58.9043 84.4244 58.9043C83.0937 58.9043 81.9633 59.2027 81.033 59.7993C80.1106 60.3881 79.408 61.177 78.9291 62.1701C78.4463 63.1553 78.2069 64.2583 78.2069 65.4829V77.0072H74.4073V49.5939H78.2069V58.4333Z" fill="#085946"/>
<path d="M120.068 66.4249C120.068 68.2579 119.746 69.8594 119.11 71.2293C118.47 72.6031 117.603 73.7492 116.504 74.6677C115.405 75.5783 114.168 76.2652 112.799 76.7245C111.437 77.1719 110.035 77.3996 108.591 77.3996C107.186 77.3996 105.804 77.1719 104.446 76.7245C103.084 76.2652 101.859 75.5783 100.772 74.6677C99.6925 73.7492 98.8329 72.6031 98.197 71.2293C97.5572 69.8594 97.2393 68.2579 97.2393 66.4249C97.2393 64.6036 97.5572 63.01 98.197 61.6362C98.8329 60.2663 99.7043 59.1241 100.803 58.2134C101.902 57.2949 103.135 56.608 104.509 56.1566C105.879 55.6974 107.28 55.4658 108.716 55.4658C110.149 55.4658 111.535 55.6974 112.877 56.1566C114.227 56.608 115.44 57.2949 116.52 58.2134C117.607 59.1241 118.47 60.2663 119.11 61.6362C119.746 63.01 120.068 64.6036 120.068 66.4249ZM101.07 66.4249C101.07 68.1009 101.439 69.4943 102.185 70.6012C102.927 71.7121 103.881 72.5481 105.042 73.1133C106.212 73.6707 107.421 73.9455 108.669 73.9455C109.957 73.9455 111.17 73.6707 112.312 73.1133C113.462 72.5481 114.408 71.7081 115.154 70.5855C115.896 69.4669 116.268 68.0813 116.268 66.4249C116.268 64.7606 115.899 63.3711 115.169 62.2485C114.447 61.118 113.505 60.2781 112.343 59.7207C111.181 59.1555 109.972 58.8729 108.716 58.8729C107.437 58.8729 106.212 59.1555 105.042 59.7207C103.881 60.2781 102.927 61.1102 102.185 62.2171C101.439 63.3279 101.07 64.7292 101.07 66.4249Z" fill="#085946"/>
<path d="M123.552 77.0072V49.5939H127.399V77.0072H123.552Z" fill="#085946"/>
<path d="M152.306 65.4827C152.325 65.5887 152.337 65.6946 152.337 65.7967C152.337 65.9027 152.337 66.0243 152.337 66.1578C152.337 66.5778 152.298 66.9703 152.227 67.3353H134.282C134.282 68.717 134.65 69.9063 135.396 70.8994C136.138 71.8964 137.064 72.6579 138.175 73.1917C139.294 73.7255 140.373 73.9924 141.41 73.9924C142.717 73.9924 143.937 73.7059 145.068 73.1289C146.206 72.5558 147.093 71.6648 147.721 70.4598H151.678C151.152 72.0102 150.359 73.3016 149.291 74.3378C148.224 75.3662 147.003 76.1356 145.633 76.6458C144.259 77.1482 142.842 77.3995 141.378 77.3995C140.016 77.3995 138.682 77.1718 137.375 76.7243C136.075 76.2651 134.902 75.5782 133.858 74.6675C132.81 73.7491 131.977 72.6029 131.361 71.2291C130.753 69.8592 130.451 68.2578 130.451 66.4247C130.451 64.6034 130.753 63.0137 131.361 61.6517C131.977 60.2936 132.81 59.1553 133.858 58.2447C134.902 57.334 136.075 56.6511 137.375 56.1879C138.682 55.7287 140.044 55.4971 141.457 55.4971C143.203 55.4971 144.879 55.87 146.481 56.6118C148.09 57.3576 149.433 58.4645 150.5 59.9403C151.568 61.4162 152.168 63.265 152.306 65.4827ZM148.271 64.1638C148.039 62.8764 147.572 61.8519 146.873 61.0865C146.183 60.3132 145.358 59.7519 144.408 59.4065C143.455 59.0533 142.469 58.8727 141.457 58.8727C140.44 58.8727 139.439 59.0533 138.458 59.4065C137.473 59.7519 136.621 60.3172 135.899 61.1022C135.184 61.8872 134.698 62.9078 134.439 64.1638H148.271Z" fill="#085946"/>
<mask id="mask0_56_3471" style="mask-type:luminance" maskUnits="userSpaceOnUse" x="45" y="0" width="16" height="47">
<path d="M45.2178 0H60.2904V46.2227H45.2178V0Z" fill="white"/>
</mask>
<g mask="url(#mask0_56_3471)">
<mask id="mask1_56_3471" style="mask-type:luminance" maskUnits="userSpaceOnUse" x="31" y="-2" width="43" height="49">
<path d="M31.6799 10.9001L54.8658 -1.67615L73.9068 33.4383L50.717 46.0106L31.6799 10.9001Z" fill="white"/>
</mask>
<g mask="url(#mask1_56_3471)">
<mask id="mask2_56_3471" style="mask-type:luminance" maskUnits="userSpaceOnUse" x="31" y="-2" width="43" height="49">
<path d="M31.6799 10.9001L54.8658 -1.67615L73.9068 33.4383L50.717 46.0106L31.6799 10.9001Z" fill="white"/>
</mask>
<g mask="url(#mask2_56_3471)">
<path d="M51.6629 45.2845C51.6629 45.2845 37.8424 22.3184 51.7296 0.337524C51.7296 0.337524 70.3309 26.3888 51.6629 45.2845Z" fill="#085946"/>
</g>
</g>
</g>
<mask id="mask3_56_3471" style="mask-type:luminance" maskUnits="userSpaceOnUse" x="14" y="20" width="33" height="29">
<path d="M14.068 20.0967H46.2229V48.2322H14.068V20.0967Z" fill="white"/>
</mask>
<g mask="url(#mask3_56_3471)">
<mask id="mask4_56_3471" style="mask-type:luminance" maskUnits="userSpaceOnUse" x="10" y="17" width="41" height="32">
<path d="M10.1232 41.0021L15.3476 17.459L50.6622 25.2975L45.4378 48.8406L10.1232 41.0021Z" fill="white"/>
</mask>
<g mask="url(#mask4_56_3471)">
<mask id="mask5_56_3471" style="mask-type:luminance" maskUnits="userSpaceOnUse" x="10" y="17" width="41" height="32">
<path d="M10.1232 41.0021L15.3476 17.459L50.6622 25.2975L45.4378 48.8406L10.1232 41.0021Z" fill="white"/>
</mask>
<g mask="url(#mask5_56_3471)">
<path d="M45.7675 47.8162C45.7675 47.8162 21.6749 43.5888 14.8451 20.8661C14.8451 20.8661 43.9266 23.6451 45.7675 47.8162Z" fill="#085946"/>
</g>
</g>
</g>
<mask id="mask6_56_3471" style="mask-type:luminance" maskUnits="userSpaceOnUse" x="0" y="46" width="40" height="14">
<path d="M0 46.2224H39.1888V59.2853H0V46.2224Z" fill="white"/>
</mask>
<g mask="url(#mask6_56_3471)">
<mask id="mask7_56_3471" style="mask-type:luminance" maskUnits="userSpaceOnUse" x="-2" y="33" width="42" height="38">
<path d="M10.0053 70.3072L-1.29919 50.7286L28.0728 33.7679L39.3772 53.3506L10.0053 70.3072Z" fill="white"/>
</mask>
<g mask="url(#mask7_56_3471)">
<mask id="mask8_56_3471" style="mask-type:luminance" maskUnits="userSpaceOnUse" x="-2" y="33" width="42" height="38">
<path d="M10.0053 70.3072L-1.29919 50.7286L28.0728 33.7679L39.3772 53.3506L10.0053 70.3072Z" fill="white"/>
</mask>
<g mask="url(#mask8_56_3471)">
<path d="M38.3645 52.797C38.3645 52.797 19.4374 64.8865 0.714355 53.7469C0.714355 53.7469 22.1182 37.5831 38.3645 52.797Z" fill="#085946"/>
</g>
</g>
</g>
<mask id="mask9_56_3471" style="mask-type:luminance" maskUnits="userSpaceOnUse" x="5" y="60" width="30" height="20">
<path d="M5.02441 60.2904H34.1648V79.3824H5.02441V60.2904Z" fill="white"/>
</mask>
<g mask="url(#mask9_56_3471)">
<mask id="mask10_56_3471" style="mask-type:luminance" maskUnits="userSpaceOnUse" x="2" y="51" width="33" height="37">
<path d="M19.7751 87.7233L2.72815 78.0596L17.5927 51.8356L34.6397 61.4954L19.7751 87.7233Z" fill="white"/>
</mask>
<g mask="url(#mask10_56_3471)">
<mask id="mask11_56_3471" style="mask-type:luminance" maskUnits="userSpaceOnUse" x="2" y="51" width="33" height="37">
<path d="M19.7751 87.7233L2.72815 78.0596L17.5927 51.8356L34.6397 61.4954L19.7751 87.7233Z" fill="white"/>
</mask>
<g mask="url(#mask11_56_3471)">
<path d="M33.6191 61.5151C33.6191 61.5151 24.5599 79.3157 5.18921 79.2136C5.18921 79.2136 14.3113 57.1739 33.6191 61.5151Z" fill="#085946"/>
</g>
</g>
</g>
<mask id="mask12_56_3471" style="mask-type:luminance" maskUnits="userSpaceOnUse" x="21" y="71" width="13" height="29">
<path d="M21.1017 71.3435H33.1598V99.479H21.1017V71.3435Z" fill="white"/>
</mask>
<g mask="url(#mask12_56_3471)">
<mask id="mask13_56_3471" style="mask-type:luminance" maskUnits="userSpaceOnUse" x="16" y="71" width="22" height="29">
<path d="M37.7915 96.7903L20.7288 99.8323L16.2306 74.6054L33.2933 71.5634L37.7915 96.7903Z" fill="white"/>
</mask>
<g mask="url(#mask13_56_3471)">
<mask id="mask14_56_3471" style="mask-type:luminance" maskUnits="userSpaceOnUse" x="16" y="71" width="22" height="29">
<path d="M37.7915 96.7903L20.7288 99.8323L16.2306 74.6054L33.2933 71.5634L37.7915 96.7903Z" fill="white"/>
</mask>
<g mask="url(#mask14_56_3471)">
<path d="M32.5161 71.5477C32.5161 71.5477 36.3313 88.5044 23.2959 99.1965C23.2959 99.1965 17.1687 79.3627 32.5161 71.5477Z" fill="#085946"/>
</g>
</g>
</g>
<mask id="mask15_56_3471" style="mask-type:luminance" maskUnits="userSpaceOnUse" x="35" y="79" width="12" height="27">
<path d="M35.1697 79.3821H46.2229V105.508H35.1697V79.3821Z" fill="white"/>
</mask>
<g mask="url(#mask15_56_3471)">
<mask id="mask16_56_3471" style="mask-type:luminance" maskUnits="userSpaceOnUse" x="27" y="78" width="28" height="28">
<path d="M27.6648 89.246L38.3216 78.5892L54.3088 94.5764L43.652 105.233L27.6648 89.246Z" fill="white"/>
</mask>
<g mask="url(#mask16_56_3471)">
<mask id="mask17_56_3471" style="mask-type:luminance" maskUnits="userSpaceOnUse" x="27" y="78" width="28" height="28">
<path d="M27.6648 89.246L38.3216 78.5892L54.3088 94.5764L43.652 105.233L27.6648 89.246Z" fill="white"/>
</mask>
<g mask="url(#mask17_56_3471)">
<path d="M43.8875 104.538C43.8875 104.538 32.799 94.3997 36.7555 80.3751C36.7555 80.3751 50.9057 91.4048 43.8875 104.538Z" fill="#085946"/>
</g>
</g>
</g>
<mask id="mask18_56_3471" style="mask-type:luminance" maskUnits="userSpaceOnUse" x="49" y="88" width="21" height="13">
<path d="M49.2373 88.4257H69.3341V100.484H49.2373V88.4257Z" fill="white"/>
</mask>
<g mask="url(#mask18_56_3471)">
<mask id="mask19_56_3471" style="mask-type:luminance" maskUnits="userSpaceOnUse" x="48" y="88" width="22" height="15">
<path d="M69.1379 88.6534L68.8984 102.219L48.5543 101.854L48.7938 88.2922L69.1379 88.6534Z" fill="white"/>
</mask>
<g mask="url(#mask19_56_3471)">
<mask id="mask20_56_3471" style="mask-type:luminance" maskUnits="userSpaceOnUse" x="48" y="88" width="22" height="15">
<path d="M69.1379 88.6534L68.8984 102.219L48.5543 101.854L48.7938 88.2922L69.1379 88.6534Z" fill="white"/>
</mask>
<g mask="url(#mask20_56_3471)">
<path d="M49.257 88.8889C49.257 88.8889 62.6535 88.5238 68.8003 99.9814C68.8003 99.9814 52.8838 101.665 49.257 88.8889Z" fill="#085946"/>
</g>
</g>
</g>
<mask id="mask21_56_3471" style="mask-type:luminance" maskUnits="userSpaceOnUse" x="59" y="83" width="16" height="7">
<path d="M59.2859 83.4016H74.3585V89.4307H59.2859V83.4016Z" fill="white"/>
</mask>
<g mask="url(#mask21_56_3471)">
<mask id="mask22_56_3471" style="mask-type:luminance" maskUnits="userSpaceOnUse" x="59" y="78" width="16" height="16">
<path d="M69.7818 78.9191L74.5509 85.7017L64.0668 93.0693L59.3016 86.2866L69.7818 78.9191Z" fill="white"/>
</mask>
<g mask="url(#mask22_56_3471)">
<mask id="mask23_56_3471" style="mask-type:luminance" maskUnits="userSpaceOnUse" x="59" y="78" width="16" height="16">
<path d="M69.7818 78.9191L74.5509 85.7017L64.0668 93.0693L59.3016 86.2866L69.7818 78.9191Z" fill="white"/>
</mask>
<g mask="url(#mask23_56_3471)">
<path d="M59.4822 86.6242C59.4822 86.6242 66.3434 81.3252 73.9228 84.9678C73.9228 84.9678 66.2492 91.9114 59.4822 86.6242Z" fill="#085946"/>
</g>
</g>
</g>
<path d="M166.177 77.2327C164.646 77.2327 163.241 76.9501 161.953 76.3849C160.666 75.8118 159.602 75.0268 158.766 74.0298C157.938 73.025 157.424 71.8631 157.227 70.5443L158.829 70.1046C158.943 71.1723 159.335 72.13 160.006 72.9779C160.674 73.8257 161.537 74.493 162.597 74.9718C163.665 75.4429 164.842 75.6784 166.13 75.6784C167.331 75.6784 168.422 75.4743 169.395 75.066C170.369 74.6578 171.13 74.1004 171.688 73.3861C172.253 72.6756 172.535 71.8788 172.535 70.9996C172.535 69.9869 172.115 69.1587 171.279 68.5189C170.451 67.883 169.105 67.3413 167.244 66.9017L164.198 66.1638C162.177 65.6731 160.705 65.0176 159.786 64.2012C158.876 63.3769 158.421 62.3093 158.421 60.9983C158.421 59.8678 158.719 58.8551 159.315 57.9523C159.92 57.0535 160.744 56.347 161.78 55.8328C162.825 55.3107 164.002 55.0477 165.313 55.0477C167.174 55.0477 168.755 55.5462 170.055 56.5393C171.35 57.5363 172.178 58.8434 172.535 60.4644L170.981 60.9512C170.781 59.6637 170.153 58.6196 169.097 57.811C168.049 57.0064 166.789 56.6021 165.313 56.6021C163.806 56.6021 162.542 57.0221 161.529 57.8581C160.524 58.6864 160.022 59.703 160.022 60.9041C160.022 61.8383 160.387 62.6076 161.121 63.2121C161.863 63.8087 163.04 64.3033 164.654 64.6879L167.7 65.4258C169.961 65.94 171.597 66.6309 172.614 67.4983C173.627 68.3579 174.137 69.4727 174.137 70.8426C174.137 72.0672 173.784 73.1663 173.085 74.1397C172.394 75.1131 171.444 75.8746 170.243 76.4163C169.038 76.958 167.684 77.2327 166.177 77.2327Z" fill="#085946"/>
<path d="M186.933 77.2327C184.775 77.2327 182.887 76.7774 181.265 75.8668C179.652 74.9483 178.4 73.653 177.513 71.9887C176.622 70.3166 176.178 68.3736 176.178 66.1638C176.178 63.9147 176.622 61.956 177.513 60.2917C178.4 58.6275 179.652 57.34 181.265 56.4294C182.887 55.5109 184.775 55.0477 186.933 55.0477C189.088 55.0477 190.972 55.5109 192.586 56.4294C194.207 57.34 195.463 58.6275 196.354 60.2917C197.241 61.956 197.688 63.9147 197.688 66.1638C197.688 68.3736 197.241 70.3166 196.354 71.9887C195.463 73.653 194.207 74.9483 192.586 75.8668C190.972 76.7774 189.088 77.2327 186.933 77.2327ZM186.933 75.6784C188.763 75.6784 190.36 75.2819 191.722 74.4851C193.092 73.6922 194.156 72.5853 194.909 71.1723C195.663 69.7514 196.04 68.0793 196.04 66.1638C196.04 64.2169 195.663 62.533 194.909 61.1082C194.156 59.6873 193.092 58.5804 191.722 57.7953C190.36 57.0025 188.763 56.6021 186.933 56.6021C185.1 56.6021 183.499 57.0025 182.129 57.7953C180.767 58.5804 179.711 59.6873 178.957 61.1082C178.204 62.533 177.827 64.2169 177.827 66.1638C177.827 68.0793 178.204 69.7514 178.957 71.1723C179.711 72.5853 180.767 73.6922 182.129 74.4851C183.499 75.2819 185.1 75.6784 186.933 75.6784Z" fill="#085946"/>
<path d="M200.969 76.4163V55.8642H202.523L202.57 59.7265H202.602C203.143 58.2742 204.109 57.132 205.491 56.3038C206.872 55.4677 208.478 55.0477 210.311 55.0477C212.069 55.0477 213.506 55.4873 214.628 56.3666C215.747 57.238 216.528 58.4626 216.968 60.0405H216.999C217.627 58.4312 218.679 57.1948 220.155 56.3352C221.639 55.4795 223.256 55.0477 225.006 55.0477C227.193 55.0477 228.9 55.7386 230.125 57.1202C231.357 58.5019 231.978 60.4095 231.978 62.8352V76.4163H230.345V62.8823C230.345 60.9158 229.846 59.3772 228.853 58.2664C227.868 57.1595 226.502 56.6021 224.755 56.6021C222.432 56.6021 220.602 57.34 219.276 58.8159C217.957 60.2917 217.297 62.3289 217.297 64.9234V76.4163H215.649V62.8823C215.649 60.9158 215.162 59.3772 214.189 58.2664C213.223 57.1595 211.853 56.6021 210.075 56.6021C207.751 56.6021 205.922 57.34 204.596 58.8159C203.265 60.2917 202.602 62.3289 202.602 64.9234V76.4163H200.969Z" fill="#085946"/>
<path d="M246.384 77.2327C244.193 77.2327 242.243 76.7539 240.527 75.804C238.82 74.8423 237.481 73.5235 236.508 71.8474C235.534 70.1635 235.048 68.2441 235.048 66.0853C235.048 63.95 235.491 62.0502 236.382 60.3859C237.269 58.7138 238.494 57.4028 240.056 56.4608C241.615 55.5187 243.393 55.0477 245.394 55.0477C247.33 55.0477 249.013 55.5305 250.45 56.4922C251.895 57.446 253.041 58.7492 253.888 60.4016C254.736 62.0581 255.199 63.9618 255.286 66.1167V66.6976H236.696C236.779 68.4482 237.246 70.0026 238.094 71.3607C238.941 72.7109 240.08 73.7707 241.516 74.5322C242.949 75.2976 244.582 75.6784 246.415 75.6784C248.193 75.6784 249.842 75.2348 251.361 74.3438C252.876 73.4567 253.991 72.3263 254.705 70.9525L256.134 71.659C255.588 72.7502 254.815 73.7158 253.81 74.5636C252.813 75.4115 251.679 76.067 250.403 76.5262C249.135 76.9972 247.797 77.2327 246.384 77.2327ZM236.743 65.1275H253.59C253.484 63.4319 253.06 61.9482 252.318 60.6686C251.584 59.3811 250.623 58.3841 249.43 57.6697C248.244 56.9593 246.886 56.6021 245.347 56.6021C243.766 56.6021 242.341 56.9632 241.077 57.6854C239.821 58.4077 238.816 59.4125 238.062 60.7C237.316 61.9874 236.877 63.4633 236.743 65.1275Z" fill="#085946"/>
<path d="M135.697 93.5099V86.3661H138.633C139.312 86.3661 139.834 86.5231 140.203 86.8371C140.568 87.1433 140.753 87.5829 140.753 88.156C140.753 88.5642 140.647 88.9017 140.438 89.1608C140.238 89.4238 139.956 89.6122 139.591 89.726V89.7417C140.03 89.8281 140.384 90.0204 140.658 90.3226C140.929 90.617 141.067 91.0096 141.067 91.5002C141.067 91.9712 140.964 92.3598 140.768 92.662C140.568 92.9564 140.297 93.1723 139.952 93.3058C139.614 93.4431 139.222 93.5099 138.774 93.5099H135.697ZM136.388 89.5376H138.696C139.104 89.5376 139.434 89.4238 139.685 89.1922C139.936 88.9645 140.062 88.6505 140.062 88.2502C140.062 87.8419 139.928 87.524 139.669 87.2924C139.406 87.0648 139.029 86.947 138.539 86.947H136.388V89.5376ZM136.388 92.929H138.633C139.143 92.929 139.563 92.819 139.889 92.5992C140.211 92.3716 140.376 91.983 140.376 91.4374C140.376 90.9899 140.223 90.6367 139.92 90.3855C139.626 90.1342 139.233 90.0086 138.743 90.0086H136.388V92.929Z" fill="#085946"/>
<path d="M149.048 93.5099V90.6524L146.473 86.3661H147.227L149.378 90.0086H149.394L151.56 86.3661H152.33L149.739 90.6524V93.5099H149.048Z" fill="#085946"/>
<path d="M166.7 93.5099L164.816 86.3661H165.523L167.061 92.5364H167.077L168.788 86.3661H169.511L171.206 92.5364H171.238L172.776 86.3661H173.467L171.599 93.5099H170.877L169.15 87.4337H169.134L167.422 93.5099H166.7Z" fill="#085946"/>
<path d="M179.274 93.5099V86.3661H179.965V89.4748H184V86.3661H184.691V93.5099H184V90.04H179.965V93.5099H179.274Z" fill="#085946"/>
</svg>
